<svg width="392" height="217" viewBox="0 0 392 217" fill="none" xmlns="http://www.w3.org/2000/svg">
<path d="M82.4567 214.13C19.2967 197.68 -15.7933 130.89 6.95674 70.41C25.3067 21.62 76.4267 -7.2 128.457 1.9C153.417 6.26 178.527 20.55 192.617 38.4C195.007 41.42 197.257 43.91 197.617 43.94C197.987 43.97 200.527 41.18 203.267 37.74C221.517 14.81 253.007 0.010002 283.577 2.02271e-06C334.827 -0.00999798 379.697 37.06 389.947 87.85C392.097 98.5 392.127 118.66 390.017 129.5C380.377 179.08 335.087 217 285.527 217C265.237 217 248.507 212.26 230.287 201.36C221.547 196.13 205.677 181.79 199.867 173.88C197.897 171.19 195.887 169 195.397 169C194.907 169 193.767 170.44 192.857 172.2C190.227 177.27 172.637 194.33 164.957 199.26C144.767 212.2 128.467 217.06 105.617 216.93C95.2067 216.87 91.0967 216.38 82.4567 214.13ZM126.957 194.01C142.307 190.09 157.917 180.85 168.167 169.62C170.797 166.73 175.657 160.46 178.957 155.69C223.787 90.85 239.317 69.17 245.047 63.35C254.467 53.79 269.147 48 283.927 48C300.707 48 314.007 53.53 325.987 65.48C333.667 73.14 340.097 84.59 342.577 95C344.377 102.54 344.117 116.17 342.027 124C337.577 140.63 324.047 157.36 309.457 164.26C292.747 172.16 276.227 172.1 259.957 164.06C251.677 159.97 242.507 152.06 237.767 144.9L235.317 141.2L239.637 135.01C242.017 131.61 244.897 127.67 246.057 126.24L248.147 123.66L252.237 129.68C254.487 132.99 258.627 137.77 261.437 140.29C281.257 158.12 313.147 147.53 320.997 120.52C323.457 112.06 322.687 99.3 319.287 92C309.037 69.99 284.337 61.53 265.457 73.56C259.097 77.61 255.517 82.06 235.747 110.5C230.777 117.65 222.827 129.06 218.087 135.86C213.337 142.66 209.457 148.78 209.457 149.45C209.457 152.13 218.377 163.94 226.477 172C244.517 189.94 270.377 199.16 293.887 196.03C319.867 192.56 341.197 179.14 356.357 156.73C369.237 137.68 373.827 110.54 368.027 87.67C363.227 68.77 351.307 50.2 336.957 39.29C328.547 32.89 314.557 25.93 304.957 23.37C295.157 20.75 270.607 20.77 261.957 23.41C238.717 30.48 224.447 42.04 206.837 68.03C197.357 82.01 179.757 107.67 160.307 135.86C148.257 153.33 143.027 158.68 132.957 163.87C111.437 174.96 86.1167 171.12 68.1267 154.04C46.0067 133.02 41.6167 100.64 57.5367 75.99C65.0967 64.3 76.5867 55.14 89.2467 50.7C96.3867 48.21 114.617 47.27 122.847 48.98C125.977 49.63 132.137 51.96 136.527 54.15C144.937 58.37 156.477 68.05 156.427 70.86C156.407 71.76 153.927 75.98 150.907 80.24L145.417 87.98L139.187 81.65C135.057 77.46 130.607 74.18 125.977 71.92C119.437 68.71 118.377 68.5 108.977 68.52C100.237 68.53 98.2267 68.87 93.2367 71.2C86.5867 74.3 78.3267 81.65 74.8567 87.57C68.3267 98.71 67.6167 114.33 73.0967 126.04C76.9167 134.22 84.2067 141.75 91.9567 145.56C96.8667 147.96 99.5067 148.56 106.477 148.84C113.937 149.14 115.727 148.86 120.977 146.54C124.267 145.09 128.457 142.46 130.297 140.7C132.137 138.94 139.537 128.95 146.747 118.5C153.947 108.05 165.427 91.41 172.257 81.53L184.677 63.56L182.957 60.37C180.207 55.26 169.057 43.63 161.727 38.23C153.087 31.86 145.217 27.93 133.937 24.36C125.637 21.74 123.747 21.52 108.957 21.51C93.6667 21.5 92.5167 21.65 82.9567 24.72C68.5667 29.35 58.8267 35.42 47.3667 46.89C33.9567 60.32 27.4667 72.02 23.4767 89.91C13.8667 133.06 39.1567 178.07 80.9067 192.09C96.6867 197.4 111.307 198 126.957 194.01Z" fill="#00C0FC"/>
</svg>
